HIERARCHY
ROOT hip
{
	OFFSET 0.000000 0.000000 0.000000 
	CHANNELS 6 Xposition Yposition Zposition Zrotation Xrotation Yrotation
	JOINT abdomen
	{
		OFFSET 0.000000 3.402643 0.000000 
		CHANNELS 3 Zrotation Xrotation Yrotation
		JOINT chest
		{
			OFFSET 0.000000 8.438565 -0.680529 
			CHANNELS 3 Zrotation Xrotation Yrotation
			JOINT neck
			{
				OFFSET 0.000000 10.207942 -0.272212 
				CHANNELS 3 Zrotation Xrotation Yrotation
				JOINT head
				{
					OFFSET 0.000000 3.130431 0.000000 
					CHANNELS 3 Zrotation Xrotation Yrotation
					End Site
					{
						OFFSET 0.000000 3.130435 0.000000 
					}
				}
			}
			JOINT lCollar
			{
				OFFSET 3.470700 6.669187 -0.816635 
				CHANNELS 3 Zrotation Xrotation Yrotation
				JOINT lShldr
				{
					OFFSET 3.198488 0.000000 0.000000 
					CHANNELS 3 Zrotation Xrotation Yrotation
					JOINT lForeArm
					{
						OFFSET 10.139888 0.000000 0.000000 
						CHANNELS 3 Zrotation Xrotation Yrotation
						JOINT lHand
						{
							OFFSET 8.370511 0.000000 0.000000 
							CHANNELS 3 Zrotation Xrotation Yrotation
							End Site
							{
								OFFSET 4.083176 0.000000 0.000000 
							}
						}
					}
				}
			}
			JOINT rCollar
			{
				OFFSET -3.470700 6.669187 -0.816635 
				CHANNELS 3 Zrotation Xrotation Yrotation
				JOINT rShldr
				{
					OFFSET -3.198488 0.000000 0.000000 
					CHANNELS 3 Zrotation Xrotation Yrotation
					JOINT rForeArm
					{
						OFFSET -10.139888 0.000000 0.000000 
						CHANNELS 3 Zrotation Xrotation Yrotation
						JOINT rHand
						{
							OFFSET -8.370511 0.000000 0.000000 
							CHANNELS 3 Zrotation Xrotation Yrotation
							End Site
							{
								OFFSET -4.083176 0.000000 0.000000 
							}
						}
					}
				}
			}
		}
	}
	JOINT lThigh
	{
		OFFSET 5.308129 -1.633274 1.361059 
		CHANNELS 3 Zrotation Xrotation Yrotation
		JOINT lShin
		{
			OFFSET -2.041588 -20.007561 0.000000 
			CHANNELS 3 Zrotation Xrotation Yrotation
			JOINT lFoot
			{
				OFFSET 0.000000 -19.190928 -1.224953 
				CHANNELS 3 Zrotation Xrotation Yrotation
				End Site
				{
					OFFSET 0.000000 -2.449906 4.627600 
				}
			}
		}
	}
	JOINT rThigh
	{
		OFFSET -5.308129 -1.633274 1.361059 
		CHANNELS 3 Zrotation Xrotation Yrotation
		JOINT rShin
		{
			OFFSET 2.041588 -20.007561 0.000000 
			CHANNELS 3 Zrotation Xrotation Yrotation
			JOINT rFoot
			{
				OFFSET 0.000000 -19.190928 -1.224953 
				CHANNELS 3 Zrotation Xrotation Yrotation
				End Site
				{
					OFFSET 0.000000 -2.449906 4.627600 
				}
			}
		}
	}
}
MOTION
Frames: 8
Frame Time: 0.033333
-2.157680 38.054970 -2.969826 -0.214845 0.146473 0.000549 -3.590376 41.799519 0.773715 -4.094040 10.647215 0.112450 -0.021018 -21.679689 -0.007764 -0.010329 -19.003906 -0.013130 -12.747678 -1.108436 0.333419 -59.266678 2.021698 21.830690 3.905094 -2.774446 -102.587326 6.642744 0.108866 -7.885024 10.187084 -1.266412 -1.393912 67.505821 -0.345958 -10.244329 5.430587 9.387714 97.569000 -8.938192 8.364655 4.712432 12.782342 -47.933441 7.094769 -29.374187 85.817032 22.161379 -2.096689 -38.586197 -1.223012 -5.066307 -47.834759 -6.119138 29.694355 86.252365 -23.158049 -5.736456 -38.797775 -5.520388 
-2.157680 35.806503 -2.928411 -0.537121 0.380833 0.003478 -3.705910 41.756809 0.780018 -4.170415 11.133286 0.220012 -0.041932 -21.318357 -0.015244 -0.010329 -19.003906 -0.013130 -12.657864 -1.185794 0.409791 -58.688671 1.405066 28.993917 3.875196 -2.869146 -105.306900 5.832884 -1.650429 -11.603301 10.175820 -1.271949 -1.470861 64.284187 -0.695002 -16.661421 4.522025 9.936424 106.038277 -8.328986 7.907214 2.735877 15.103944 -52.301456 9.024197 -146.421112 85.917496 138.710632 -1.369871 -41.194080 -1.450307 -5.229972 -52.331238 -7.235814 167.380600 85.167343 -159.967987 -6.043961 -41.526333 -6.373438 
-2.157680 33.920116 -2.799791 -0.625018 0.439417 0.004794 -3.698518 41.171261 0.727237 -4.192015 11.249893 0.243048 -0.041787 -20.800781 -0.014839 -0.010329 -19.003906 -0.013130 -12.636256 -1.214652 0.505136 -57.977997 0.827936 36.156704 3.837511 -2.961427 -108.031517 4.787127 -3.356007 -15.338516 10.165718 -1.265374 -1.499743 61.001034 -0.997312 -23.070105 3.555415 10.425776 114.525879 -7.759645 7.440375 0.759577 16.763823 -55.252441 10.393037 -168.477478 80.612000 160.436569 -1.524814 -43.845158 -1.687076 -5.512311 -55.301472 -7.950698 176.367554 79.305222 -168.529343 -6.404234 -44.014618 -6.945860 
-2.157680 33.304783 -2.440367 -0.000000 -0.000010 -0.000000 -3.375660 39.150482 0.550262 -4.050207 10.336011 0.054036 -0.000000 -19.931644 -0.000000 -0.000000 -19.003906 -0.000000 -12.799721 -1.159545 0.676226 -57.155434 0.338800 43.321247 3.804822 -3.043854 -110.764191 3.530456 -4.987081 -19.086290 10.197847 -1.267774 -1.336190 57.630989 -1.270809 -29.490389 2.527021 10.848603 123.031700 -7.219502 6.963097 -1.210419 14.867991 -53.550835 9.068649 -169.676590 79.690552 161.774567 -1.419918 -46.279686 -1.721834 -6.397004 -53.515003 -7.636675 175.024658 80.041946 -167.262756 -6.400032 -46.338970 -7.193895 
-2.157680 34.808968 -1.778090 1.631206 -1.181172 0.033635 -2.578449 34.718918 0.228994 -3.716733 7.874236 -0.428236 0.082380 -18.496080 0.016368 -0.000000 -19.013674 -0.000000 -13.110059 -0.995327 0.970217 -56.268955 -0.306999 9.140757 4.197374 -2.807652 -107.916985 4.495542 -2.788230 -11.001184 10.282759 -1.278008 -0.961056 57.861851 -1.282801 -22.701317 6.710789 9.155188 102.049606 -6.625017 6.296202 -2.218999 9.463033 -45.221752 5.238901 -139.878662 85.707321 132.672562 -0.983843 -46.475601 -1.440573 -7.541821 -46.384102 -5.680038 135.931763 87.500328 -128.765503 -5.068945 -42.195492 -5.968326 
-2.157680 39.039227 -1.027109 4.028582 -2.893259 0.204364 -1.060023 26.665987 -0.325011 -3.485214 4.035519 -0.994661 0.122089 -16.289030 0.024498 -0.000000 -19.013674 -0.000000 -12.751904 -0.998464 1.485954 -57.180889 -1.131977 -50.648403 4.875761 -1.903942 -96.886459 4.815375 -0.415081 -2.958123 10.337630 -1.299126 -0.643811 58.353100 -1.051351 -5.118052 9.881023 5.949107 81.392769 -5.626981 5.669474 -2.407563 4.372043 -33.328537 3.315931 -13.122253 77.131714 6.999024 -1.782296 -43.333214 -1.726462 -8.539797 -39.271931 -3.035248 22.996483 83.136871 -16.253759 -3.845855 -37.840687 -5.293558 
-2.157680 43.209316 -0.473125 6.830612 -4.790132 0.574254 0.940493 15.056658 -0.654338 -3.496201 -0.448379 -1.414113 -0.000000 -13.125001 -0.000000 -0.000000 -19.003906 -0.000000 -12.340605 -1.310267 2.280256 -65.609848 -0.607675 -76.214287 5.553463 -0.414681 -81.975258 4.782517 -0.298697 -3.692722 10.304948 -1.360570 -0.768829 58.739925 -1.006076 13.097761 11.622549 1.744591 61.205357 -4.208066 5.070872 -1.903423 1.442097 -22.958775 2.428042 -9.141406 56.989376 2.753165 -1.057402 -29.603266 -1.110000 -9.978532 -25.956240 -0.825813 5.890455 63.264168 -0.959178 -2.574459 -33.091343 -4.172733 
-2.157680 53.649666 -0.327083 9.643762 -6.557248 1.113282 2.360633 4.449358 -0.495736 -3.190844 -3.861212 -1.435796 -0.257025 -8.935461 -0.039965 -0.020656 -18.994137 -0.026258 -16.359426 -1.700949 3.026779 -76.792717 0.326003 -84.580070 5.245797 1.684839 -71.536423 4.763470 -0.164259 -4.413007 10.084444 -1.444899 -1.423290 58.987793 -1.656363 24.239294 10.098846 -2.880664 59.450218 -2.414305 4.505334 -0.857300 1.965462 -17.506229 1.678793 -7.139264 45.441914 1.272059 -3.444034 9.522004 -17.524643 -13.340711 -10.815256 -1.003350 3.453001 38.152779 0.231384 -2.099659 -5.275443 -4.063535 
